<svg width="26" height="26" viewBox="0 0 26 26" fill="none" xmlns="http://www.w3.org/2000/svg">
<g clip-path="url(#clip0_478_1290)">
<path d="M12.6154 0C5.64816 0 0 5.64816 0 12.6154C0 18.5315 4.07326 23.4959 9.56801 24.8594V16.4706H6.96672V12.6154H9.56801V10.9542C9.56801 6.66042 11.5113 4.67022 15.7268 4.67022C16.5262 4.67022 17.9053 4.82715 18.4694 4.98358V8.47804C18.1717 8.44676 17.6545 8.43111 17.0121 8.43111C14.9437 8.43111 14.1444 9.21478 14.1444 11.2519V12.6154H18.2651L17.5571 16.4706H14.1444V25.1384C20.391 24.384 25.2313 19.0654 25.2313 12.6154C25.2308 5.64816 19.5826 0 12.6154 0Z" fill="#FDFFE3"/>
</g>
<defs>
<clipPath id="clip0_478_1290">
<rect width="25.2308" height="25.2308" fill="white"/>
</clipPath>
</defs>
</svg>
