<svg width="26" height="26" viewBox="0 0 26 26" fill="none" xmlns="http://www.w3.org/2000/svg">
<g clip-path="url(#clip0_478_1289)">
<path d="M12.6154 2.27175C15.9861 2.27175 16.3852 2.28654 17.7108 2.34567C18.9428 2.39988 19.6081 2.60685 20.0516 2.77933C20.638 3.00601 21.0618 3.28197 21.5004 3.72055C21.9439 4.16406 22.2149 4.58293 22.4416 5.16935C22.6141 5.61286 22.821 6.28305 22.8752 7.5101C22.9344 8.84062 22.9492 9.23978 22.9492 12.6055C22.9492 15.9762 22.9344 16.3754 22.8752 17.701C22.821 18.9329 22.6141 19.5982 22.4416 20.0417C22.2149 20.6281 21.9389 21.0519 21.5004 21.4905C21.0569 21.934 20.638 22.205 20.0516 22.4317C19.6081 22.6042 18.9379 22.8112 17.7108 22.8654C16.3803 22.9245 15.9811 22.9393 12.6154 22.9393C9.24471 22.9393 8.84555 22.9245 7.51995 22.8654C6.28798 22.8112 5.62272 22.6042 5.17921 22.4317C4.59279 22.205 4.16899 21.9291 3.73041 21.4905C3.2869 21.047 3.01587 20.6281 2.78918 20.0417C2.61671 19.5982 2.40974 18.928 2.35553 17.701C2.29639 16.3704 2.28161 15.9713 2.28161 12.6055C2.28161 9.23486 2.29639 8.8357 2.35553 7.5101C2.40974 6.27812 2.61671 5.61286 2.78918 5.16935C3.01587 4.58293 3.29183 4.15913 3.73041 3.72055C4.17392 3.27704 4.59279 3.00601 5.17921 2.77933C5.62272 2.60685 6.29291 2.39988 7.51995 2.34567C8.84555 2.28654 9.24471 2.27175 12.6154 2.27175ZM12.6154 0C9.19051 0 8.76178 0.0147837 7.41647 0.0739183C6.07608 0.133053 5.15457 0.34988 4.35625 0.660336C3.52344 0.985577 2.81875 1.4143 2.11899 2.11899C1.4143 2.81875 0.985577 3.52344 0.660337 4.35132C0.34988 5.15457 0.133053 6.07115 0.0739183 7.41154C0.0147837 8.76178 0 9.1905 0 12.6154C0 16.0403 0.0147837 16.469 0.0739183 17.8143C0.133053 19.1547 0.34988 20.0762 0.660337 20.8745C0.985577 21.7073 1.4143 22.412 2.11899 23.1118C2.81875 23.8115 3.52344 24.2452 4.35132 24.5655C5.15457 24.876 6.07115 25.0928 7.41154 25.1519C8.75685 25.2111 9.18558 25.2258 12.6105 25.2258C16.0353 25.2258 16.4641 25.2111 17.8094 25.1519C19.1498 25.0928 20.0713 24.876 20.8696 24.5655C21.6975 24.2452 22.4022 23.8115 23.1019 23.1118C23.8017 22.412 24.2353 21.7073 24.5556 20.8794C24.8661 20.0762 25.0829 19.1596 25.1421 17.8192C25.2012 16.4739 25.216 16.0452 25.216 12.6203C25.216 9.19543 25.2012 8.76671 25.1421 7.42139C25.0829 6.08101 24.8661 5.1595 24.5556 4.36118C24.2452 3.52344 23.8165 2.81875 23.1118 2.11899C22.412 1.41923 21.7073 0.985577 20.8794 0.665264C20.0762 0.354808 19.1596 0.137981 17.8192 0.0788462C16.469 0.0147837 16.0403 0 12.6154 0Z" fill="#FDFFE3"/>
<path d="M12.6154 6.13519C9.03778 6.13519 6.13525 9.03772 6.13525 12.6154C6.13525 16.193 9.03778 19.0955 12.6154 19.0955C16.1931 19.0955 19.0956 16.193 19.0956 12.6154C19.0956 9.03772 16.1931 6.13519 12.6154 6.13519ZM12.6154 16.8188C10.2944 16.8188 8.41194 14.9364 8.41194 12.6154C8.41194 10.2943 10.2944 8.41188 12.6154 8.41188C14.9365 8.41188 16.8189 10.2943 16.8189 12.6154C16.8189 14.9364 14.9365 16.8188 12.6154 16.8188Z" fill="#FDFFE3"/>
<path d="M20.8646 5.87895C20.8646 6.71669 20.1845 7.39181 19.3517 7.39181C18.514 7.39181 17.8389 6.71176 17.8389 5.87895C17.8389 5.04121 18.5189 4.36609 19.3517 4.36609C20.1845 4.36609 20.8646 5.04614 20.8646 5.87895Z" fill="#FDFFE3"/>
</g>
<defs>
<clipPath id="clip0_478_1289">
<rect width="25.2308" height="25.2308" fill="white"/>
</clipPath>
</defs>
</svg>
