<svg width="26" height="26" viewBox="0 0 26 26" fill="none" xmlns="http://www.w3.org/2000/svg">
<path d="M0 25.2308L1.77351 18.7517C0.679128 16.8552 0.104077 14.7053 0.105128 12.5008C0.108282 5.60859 5.71687 0 12.608 0C15.9522 0.00105128 19.0913 1.30359 21.4525 3.66687C23.8126 6.03015 25.112 9.17139 25.1109 12.5124C25.1078 19.4056 19.4992 25.0142 12.608 25.0142C10.516 25.0132 8.45441 24.4886 6.62833 23.4919L0 25.2308ZM6.93531 21.2285C8.69726 22.2746 10.3793 22.9011 12.6038 22.9022C18.3312 22.9022 22.9968 18.2408 22.9999 12.5103C23.0021 6.76815 18.3585 2.11308 12.6122 2.11097C6.88064 2.11097 2.21821 6.77236 2.2161 12.5018C2.21505 14.8409 2.90049 16.5924 4.05164 18.4248L3.00141 22.2598L6.93531 21.2285ZM18.9063 15.4843C18.8285 15.354 18.6203 15.2762 18.307 15.1195C17.9948 14.9629 16.4589 14.207 16.1719 14.1029C15.8859 13.9989 15.6778 13.9463 15.4686 14.2596C15.2604 14.5718 14.6612 15.2762 14.4793 15.4843C14.2974 15.6925 14.1145 15.7188 13.8023 15.5621C13.4901 15.4055 12.4829 15.0764 11.2897 14.0115C10.3614 13.1831 9.73382 12.1602 9.55195 11.8469C9.37008 11.5347 9.53303 11.3654 9.68861 11.2098C9.82949 11.07 10.0008 10.845 10.1575 10.6621C10.3162 10.4813 10.3677 10.3509 10.4729 10.1417C10.5769 9.93356 10.5254 9.75064 10.4466 9.594C10.3677 9.43841 9.74328 7.90038 9.48362 7.27487C9.22921 6.66618 8.97164 6.74818 8.78031 6.73872L8.18108 6.72821C7.97292 6.72821 7.63441 6.806 7.34846 7.11928C7.06251 7.43256 6.25513 8.18738 6.25513 9.72541C6.25513 11.2634 7.37474 12.7489 7.53033 12.9571C7.68697 13.1652 9.73277 16.3212 12.8666 17.6742C13.612 17.9958 14.1944 18.1882 14.6475 18.3323C15.396 18.5698 16.0773 18.5362 16.6155 18.4563C17.2158 18.3669 18.4637 17.7004 18.7244 16.9708C18.9851 16.2402 18.9851 15.6147 18.9063 15.4843Z" fill="#FDFFE3"/>
</svg>
