<svg width="26" height="26" viewBox="0 0 26 26" fill="none" xmlns="http://www.w3.org/2000/svg">
<g clip-path="url(#clip0_478_1288)">
<path d="M23.3631 0H1.86274C0.832812 0 0 0.813101 0 1.81839V23.4075C0 24.4127 0.832812 25.2308 1.86274 25.2308H23.3631C24.393 25.2308 25.2308 24.4127 25.2308 23.4124V1.81839C25.2308 0.813101 24.393 0 23.3631 0ZM7.48546 21.5004H3.74026V9.45661H7.48546V21.5004ZM5.61286 7.81563C4.41046 7.81563 3.43966 6.84483 3.43966 5.64736C3.43966 4.44988 4.41046 3.47909 5.61286 3.47909C6.81034 3.47909 7.78113 4.44988 7.78113 5.64736C7.78113 6.8399 6.81034 7.81563 5.61286 7.81563ZM21.5004 21.5004H17.7601V15.646C17.7601 14.2514 17.7355 12.4528 15.8136 12.4528C13.8671 12.4528 13.5714 13.9755 13.5714 15.5475V21.5004H9.83606V9.45661H13.4236V11.1025H13.4728C13.9706 10.1564 15.1927 9.15601 17.0111 9.15601C20.8006 9.15601 21.5004 11.6495 21.5004 14.8921V21.5004V21.5004Z" fill="#FDFFE3"/>
</g>
<defs>
<clipPath id="clip0_478_1288">
<rect width="25.2308" height="25.2308" fill="white"/>
</clipPath>
</defs>
</svg>
