<svg width="80" height="17" viewBox="0 0 80 17" fill="none" xmlns="http://www.w3.org/2000/svg">
<path d="M6.33594 14.8911C6.58996 14.8911 6.79589 14.6874 6.79589 14.4361C6.79589 14.1848 6.58996 13.9811 6.33594 13.9811C6.08191 13.9811 5.87598 14.1848 5.87598 14.4361C5.87598 14.6874 6.08191 14.8911 6.33594 14.8911Z" fill="#1F5206"/>
<path d="M11.0345 15.4778L11.4652 14.7544C11.4883 14.7154 11.4737 14.6653 11.4322 14.6434L10.6721 14.2335" fill="#193207"/>
<path d="M4.11794 15.6804L3.68726 14.957C3.66408 14.9179 3.67872 14.8679 3.72021 14.8459L4.4803 14.4361" fill="#88922C"/>
<path d="M9.3228 9.31362L9.75348 8.59021C9.77666 8.55117 9.76202 8.50116 9.72054 8.4792L8.96045 8.06931" fill="#193207"/>
<path d="M10.1268 12.3195L10.5574 11.5961C10.5806 11.557 10.566 11.507 10.5245 11.4851L9.7644 11.0752" fill="#193207"/>
<path d="M9.55459 10.3115L9.36792 9.52344C9.55337 9.49416 9.80958 9.43439 10.0902 9.30142C10.3964 9.15625 10.6185 8.97936 10.7624 8.84517H11.6336C11.4945 9.08061 11.2102 9.48928 10.7063 9.83086C10.2525 10.1383 9.8169 10.259 9.55459 10.3115Z" fill="#88922C"/>
<path d="M8.68823 7.07509L8.93956 7.95587C9.20553 7.90951 9.70453 7.78752 10.2072 7.42887C10.6611 7.10559 10.916 6.73474 11.0442 6.51393H10.123C9.91194 6.65056 9.62889 6.80549 9.27386 6.92626C9.06035 6.99824 8.86148 7.04459 8.68823 7.07509Z" fill="#88922C"/>
<path d="M0.21987 6.9067C-0.154686 6.12962 -0.0436614 5.24762 0.499261 4.66938C1.02754 4.107 1.75957 4.05088 1.9316 4.04234C1.92306 3.96305 1.83034 2.87977 2.73073 2.19539C3.47008 1.63423 4.32656 1.7611 4.46321 1.78306C4.9073 0.780293 5.87358 0.0898209 6.96065 0.00808657C8.27952 -0.0907265 9.56058 0.724177 10.0254 2.00631C10.7233 1.75134 11.5078 1.90139 12.0239 2.38692C12.7339 3.05543 12.5375 3.98379 12.5241 4.04356C12.6522 4.04722 13.6002 4.08992 14.2224 4.86091C14.7507 5.51478 14.6775 6.24063 14.6579 6.3919C12.618 6.41508 10.5781 6.43826 8.53817 6.46266C8.7529 6.20281 8.82611 6.00763 8.76022 5.8771C8.61626 5.59286 7.81102 5.61237 6.34452 5.93565C6.41773 6.00763 6.53973 6.14792 6.61416 6.35896C6.69956 6.59929 6.6776 6.80667 6.6593 6.90914H0.21987V6.9067Z" fill="#B2DA34"/>
<path d="M5.05013 7.17388C4.90983 7.17876 4.67924 7.17022 4.41571 7.07507C4.1778 6.98845 4.00821 6.86646 3.90572 6.77985H2.92236C3.30424 7.26049 3.68368 7.4813 3.95575 7.59353C4.41815 7.78384 4.74512 7.73748 5.52473 7.97536C5.83584 8.07052 6.08107 8.16811 6.2348 8.23398C6.30556 7.95828 6.37633 7.6838 6.44587 7.4081C6.35315 7.39834 6.12622 7.36175 5.91027 7.18608C5.72848 7.03847 5.64552 6.86524 5.61136 6.77985H4.86468L5.05135 7.17388H5.05013Z" fill="#193207"/>
<path d="M7.60011 16.0366H3.98022C4.9282 12.6745 5.87496 9.31362 6.82294 5.95154H7.60011V16.0366Z" fill="#193207"/>
<path d="M7.59985 16.0366C8.80648 16.0366 10.0131 16.0366 11.2197 16.0366C10.2718 12.6745 9.325 9.31362 8.37703 5.95154C8.11837 5.95154 7.8585 5.95154 7.59985 5.95154V16.0366Z" fill="#88922C"/>
<path d="M6.53846 6.95914H0.219821C0.213721 6.92132 0.157599 6.55535 0.44431 6.28209C0.660259 6.07714 0.986013 6.00395 1.28737 6.09178C1.34959 6.00517 1.84859 5.33787 2.78193 5.26712C3.64328 5.20246 4.21915 5.69409 4.31065 5.7746C4.34237 5.72459 4.4229 5.60991 4.58028 5.53184C4.74011 5.45132 4.89018 5.45376 4.95118 5.45742C4.94264 5.40863 4.83161 4.63398 5.45628 4.12528C5.92478 3.74466 6.61167 3.67147 7.18631 3.94595C7.62553 3.32013 8.39538 2.97002 9.18597 3.03711C9.98877 3.10543 10.6891 3.59095 10.9953 4.29485C11.0734 4.26679 11.6883 4.05574 12.2983 4.39C12.9596 4.75231 13.034 5.43547 13.0401 5.50012C13.1511 5.48426 13.6111 5.43303 14.0625 5.71117C14.4993 5.98077 14.6372 6.37846 14.6689 6.48337C12.6241 6.50045 10.5781 6.51875 8.53325 6.53583C8.50885 6.45775 8.48566 6.37846 8.46248 6.29551C8.42954 6.17717 8.40026 6.0625 8.37586 5.95149H6.82152C6.77637 6.1113 6.73123 6.26989 6.68731 6.4297C6.63729 6.60536 6.58849 6.78225 6.53846 6.95792V6.95914Z" fill="#88922C"/>
<path d="M5.58081 10.8641C5.83484 10.8641 6.04077 10.6604 6.04077 10.4091C6.04077 10.1577 5.83484 9.95403 5.58081 9.95403C5.32678 9.95403 5.12085 10.1577 5.12085 10.4091C5.12085 10.6604 5.32678 10.8641 5.58081 10.8641Z" fill="#C2D836"/>
<path d="M7.6001 11.773C7.85412 11.773 8.06006 11.5692 8.06006 11.3179C8.06006 11.0666 7.85412 10.8629 7.6001 10.8629C7.34607 10.8629 7.14014 11.0666 7.14014 11.3179C7.14014 11.5692 7.34607 11.773 7.6001 11.773Z" fill="#C2D836"/>
<path d="M9.36792 9.97112C9.62195 9.97112 9.82788 9.7674 9.82788 9.51609C9.82788 9.26479 9.62195 9.06107 9.36792 9.06107C9.11389 9.06107 8.90796 9.26479 8.90796 9.51609C8.90796 9.7674 9.11389 9.97112 9.36792 9.97112Z" fill="#C2D836"/>
<path d="M6.53592 7.62035C6.83971 7.90703 7.14473 8.19249 7.44852 8.47917L9.32252 9.40264L7.48512 11.2569C6.88486 10.9885 6.28581 10.7201 5.68555 10.4505C6.28581 11.3618 6.88486 12.2731 7.48512 13.1844H10.4999" stroke="#C2D836" stroke-width="0.542756" stroke-miterlimit="10" stroke-linecap="round"/>
<path d="M10.5 13.6394C10.754 13.6394 10.96 13.4357 10.96 13.1844C10.96 12.9331 10.754 12.7293 10.5 12.7293C10.246 12.7293 10.04 12.9331 10.04 13.1844C10.04 13.4357 10.246 13.6394 10.5 13.6394Z" fill="#C2D836"/>
<path d="M7.59991 13.1844L6.33594 14.436" stroke="#C2D836" stroke-width="0.542756" stroke-miterlimit="10"/>
<path d="M5.82961 9.5161L5.39893 8.79269C5.37575 8.75366 5.39039 8.70364 5.43188 8.68168L6.19197 8.27179" fill="#88922C"/>
<path d="M5.02566 12.522L4.59498 11.7986C4.5718 11.7596 4.58644 11.7096 4.62792 11.6876L5.38801 11.2777" fill="#88922C"/>
<path d="M6.33594 14.8911C6.58996 14.8911 6.79589 14.6874 6.79589 14.4361C6.79589 14.1848 6.58996 13.9811 6.33594 13.9811C6.08191 13.9811 5.87598 14.1848 5.87598 14.4361C5.87598 14.6874 6.08191 14.8911 6.33594 14.8911Z" fill="#C2D836"/>
<path d="M6.65185 8.23392C6.90588 8.23392 7.11181 8.0302 7.11181 7.7789C7.11181 7.52759 6.90588 7.32387 6.65185 7.32387C6.39783 7.32387 6.19189 7.52759 6.19189 7.7789C6.19189 8.0302 6.39783 8.23392 6.65185 8.23392Z" fill="#C2D836"/>
<path d="M31.7765 9.50024C31.6508 10.5738 31.2836 11.5131 30.6736 12.3158C30.0635 13.1185 29.2583 13.7443 28.2566 14.1932C27.255 14.641 26.1081 14.8654 24.8149 14.8654C23.4179 14.8654 22.1967 14.6092 21.1547 14.0993C20.1116 13.5882 19.3015 12.8721 18.7219 11.9486C18.1436 11.0263 17.8533 9.94917 17.8533 8.71827C17.8533 7.48738 18.1424 6.41141 18.7219 5.48794C19.3003 4.56568 20.1116 3.84837 21.1547 3.33723C22.1979 2.82608 23.4179 2.57112 24.8149 2.57112C26.1081 2.57112 27.255 2.79559 28.2566 3.24329C29.2583 3.69222 30.0635 4.31682 30.6736 5.12074C31.2836 5.92345 31.6508 6.86278 31.7765 7.93631H27.7247C27.6308 7.53007 27.4587 7.18362 27.2086 6.89572C26.9585 6.60904 26.6328 6.39067 26.2314 6.23941C25.83 6.08814 25.3578 6.0125 24.8161 6.0125C24.211 6.0125 23.6924 6.11985 23.2593 6.33334C22.8262 6.54682 22.4956 6.85668 22.2662 7.26413C22.0368 7.67037 21.9221 8.15589 21.9221 8.71827C21.9221 9.28065 22.0368 9.76374 22.2662 10.1651C22.4956 10.5664 22.8262 10.8763 23.2593 11.0959C23.6924 11.3143 24.211 11.424 24.8161 11.424C25.3578 11.424 25.83 11.3533 26.2314 11.213C26.6328 11.0727 26.9585 10.8592 27.2086 10.5713C27.4587 10.2846 27.6308 9.92721 27.7247 9.50024H31.7765Z" fill="#FDFFE3"/>
<path d="M37.4242 8.71822L36.7044 13.0819L35.172 11.3923H44.0723V14.5836H32.7161L33.5762 8.71822L32.7161 2.85287H43.9942V6.04417H35.172L36.7044 4.35459L37.4242 8.71822ZM43.4928 7.3263V10.1101H34.6547V7.3263H43.4928Z" fill="#FDFFE3"/>
<path d="M45.7302 2.85287H49.7662V14.5836H45.7302V2.85287Z" fill="#FDFFE3"/>
<path d="M60.1513 8.89023L60.4636 8.17048C61.3494 8.2022 62.0899 8.34249 62.6853 8.59257C63.2807 8.84266 63.726 9.18911 64.0225 9.63316C64.3202 10.076 64.4678 10.6054 64.4678 11.2203C64.4678 11.8351 64.3239 12.4304 64.0371 12.9403C63.7504 13.4515 63.3149 13.8528 62.7305 14.1444C62.1461 14.436 61.4165 14.5824 60.5405 14.5824H51.3267L52.2185 8.56085L51.3267 2.85165H60.2111C61.2957 2.85165 62.1448 3.10418 62.761 3.61044C63.3759 4.11671 63.6833 4.81694 63.6833 5.71357C63.6833 6.22472 63.5686 6.70414 63.3393 7.15307C63.1099 7.602 62.7366 7.98018 62.2205 8.28759C61.7044 8.59501 61.0139 8.7963 60.1476 8.89023H60.1513ZM55.2711 13.7077L53.7387 11.9095H59.2606C59.6047 11.9095 59.8756 11.818 60.0744 11.6363C60.2721 11.4545 60.3721 11.2056 60.3721 10.8933C60.3721 10.6115 60.2757 10.3724 60.083 10.1736C59.8902 9.97596 59.6059 9.87592 59.2301 9.87592H54.6001V7.24823H58.636C58.9068 7.24823 59.1338 7.16527 59.3168 6.99814C59.4986 6.83102 59.5901 6.61753 59.5901 6.35647C59.5901 6.11615 59.5059 5.91852 59.34 5.76237C59.1728 5.60622 58.9386 5.52815 58.636 5.52815H53.7558L55.2735 3.72999L56.0714 8.56329L55.2735 13.7089L55.2711 13.7077Z" fill="#FDFFE3"/>
<path d="M74.7932 2.85287L79.9394 14.5836H75.6375L71.5857 4.63639H72.6179L68.5661 14.5836H64.2642L69.4103 2.85287H74.7908H74.7932ZM68.0353 12.6122V9.40626H76.0291V12.6122H68.0353Z" fill="#FDFFE3"/>
</svg>
