<svg width="98" height="60" viewBox="0 0 98 60" fill="none" xmlns="http://www.w3.org/2000/svg">
<g clip-path="url(#clip0_476_770)">
<path d="M29.2142 60L29.1428 43.9273H33.1782C33.3443 43.9273 33.9624 44.2236 34.1357 44.3327C36.4097 45.7709 36.3222 50.3927 35.136 52.5455L35.5397 53.5218L35.6416 54.1455V57.4546C35.7112 57.4309 35.797 57.5273 35.8202 57.5273H44.7484L44.8556 57.6364V58.8C44.8556 59.0673 44.4787 59.64 44.2393 59.7727C44.0643 59.8691 43.841 59.8309 43.7124 60H35.0699C34.8538 59.8455 34.5626 59.8764 34.3161 59.7855C33.648 59.5364 33.2693 58.8455 33.2103 58.1473C33.0978 56.8273 33.33 55.3709 33.1764 54.0364C33.0263 53.6946 32.2082 53.7073 31.8884 53.74C31.6258 53.7673 31.5347 53.7709 31.4972 54.0673C31.3096 55.5291 31.7366 57.5873 31.4847 59C31.3846 59.5564 30.9005 59.8218 30.4307 59.9982H29.216L29.2142 60ZM31.5008 46.5091V51.1636C31.5008 51.4273 32.678 51.2109 32.8923 51.2709C33.3354 51.1836 33.5444 49.8164 33.5712 49.4164C33.6122 48.7964 33.4854 46.8418 32.9692 46.4673C32.7369 46.4018 31.5758 46.2618 31.5008 46.5091Z" fill="#FDFFE3"/>
<path d="M98 31.9273V33.1636C97.8428 33.3364 97.8785 33.5836 97.7999 33.7964C96.9353 36.1509 93.3018 36.7691 91.1421 36.9455C91.1189 37.1218 91.1421 37.0618 91.2422 37.0982C91.5458 37.2146 92.1889 37.1746 92.5391 37.1655C93.8503 37.1327 95.617 36.9327 96.896 37.0855C96.9996 37.0982 97.08 37.0946 97.1425 37.1982V38.6527C97.1425 38.6891 96.8907 39.2218 96.846 39.2964C96.553 39.78 95.9475 40.2127 95.3847 40.2818C94.3379 40.4091 90.9117 40.4018 89.9417 40.1673C88.9717 39.9327 88.0589 39.1564 87.9356 38.0655C87.7034 36.0164 88.0874 33.5546 87.9356 31.4636C88.1821 29.9164 89.4915 29.3436 90.8938 29.2382C92.5087 29.1182 95.0686 29.1273 96.4941 29.9346C97.2801 30.3782 97.7427 31.0636 98 31.9291V31.9273ZM94.179 32.4364C93.209 32.3273 92.0621 32.5164 91.0725 32.4364V33.7091L91.235 33.8055C92.2229 33.56 93.3536 33.4836 94.2861 33.0527C94.4951 32.9564 94.8435 32.8655 94.7881 32.5818C94.5916 32.6036 94.3433 32.4546 94.1807 32.4364H94.179Z" fill="#FDFFE3"/>
<path d="M82.4282 60C82.3425 59.9 82.2961 59.8127 82.2818 59.6764C82.1138 58.1182 82.3336 56.08 82.5926 54.5327C83.1803 51.0145 84.1807 47.5145 85.0131 44.0509L85.1149 43.9364H87.1335C87.8534 46.88 88.6555 49.82 89.2504 52.7964C89.463 53.8618 89.7416 55.1218 89.8452 56.1909C89.8845 56.6036 89.7523 57.1218 89.9614 57.4545H97.3891C97.4051 57.4545 97.5302 57.58 97.5373 57.6327C97.4141 58.0509 97.5838 58.5764 97.4551 58.9782C97.3623 59.2655 96.9317 59.7327 96.6406 59.8218C96.5834 59.84 96.1315 59.9291 96.1029 59.9291H87.6033C87.5676 59.9291 87.4515 59.7491 87.4587 59.6782C87.6712 57.5873 87.3568 55.6327 86.9638 53.6C86.7298 52.3836 86.4458 51.1491 86.1046 49.9673C86.0028 50.0436 85.9653 50.1018 85.9313 50.2273C85.4222 52.0145 84.7577 55.2273 84.6416 57.06C84.588 57.9164 84.8899 58.9655 84.2057 59.5982C83.9484 59.8345 83.6769 59.8127 83.4268 60.0054H82.4265L82.4282 60Z" fill="#FDFFE3"/>
<path d="M0 60V43.9273H4.24976C4.58381 43.9273 5.36803 44.4309 5.61812 44.68C6.87036 45.9309 7.02935 48.7691 6.60955 50.4018C6.5506 50.6309 6.27193 51.1564 6.28443 51.3037C6.29337 51.3946 6.70959 52.0382 6.79712 52.24C7.61528 54.1237 7.62063 57.9546 5.88965 59.3418C5.46092 59.6855 5.03934 59.7636 4.56952 59.9982H0V60ZM2.42946 46.4V57.4182L2.53664 57.5273H4.25155C4.36409 57.5273 4.5463 57.2618 4.60168 57.1564C5.06613 56.28 5.00897 54.1491 4.60704 53.2382C4.28192 52.5 3.9961 52.8146 3.45126 52.5236C2.73671 52.1436 2.77423 50.9455 2.94036 50.2637C3.30656 50.2218 4.0479 50.3436 4.2319 49.9436C4.47663 49.4109 4.48199 46.5418 3.80853 46.3418C3.64419 46.2927 2.48483 46.3127 2.43124 46.4H2.42946Z" fill="#FDFFE3"/>
<path d="M14.2141 60C14.0498 59.8418 13.8229 59.8164 13.621 59.6945C12.9369 59.2836 12.7314 58.6018 12.5796 57.8473V46.0818C12.8065 43.5855 15.2091 43.7164 17.1116 43.8509C18.7318 43.9655 19.491 44.9982 19.6465 46.5782C19.4107 50.0655 19.9573 53.9709 19.6357 57.4091C19.5625 58.1873 19.2338 59.08 18.5961 59.5509C18.3156 59.7582 18.0352 59.7964 17.7868 60H14.2159H14.2141ZM15.1216 46.3418C15.0519 46.3618 15.0001 46.4091 14.9644 46.4727L14.934 57.2673C14.9626 57.4309 15.0055 57.5673 15.1788 57.6C15.4056 57.6418 16.7365 57.6418 16.9633 57.5982C17.0384 57.5836 17.1027 57.5618 17.1509 57.4982L17.2134 46.5836C17.1938 46.4345 17.108 46.3564 16.9633 46.3291C16.7686 46.2909 15.2824 46.2945 15.1234 46.3418H15.1216Z" fill="#FDFFE3"/>
<path d="M77.9284 60H74.2145L74.1431 43.9273H78.107C78.8626 43.9273 79.6844 45.0291 79.9791 45.6564C81.2528 48.3691 81.3868 56.1018 79.788 58.6546C79.3057 59.4255 78.7876 59.7491 77.9284 59.9982V60ZM76.4993 57.4546C77.3567 57.5964 77.6765 57.7291 78.0123 56.8509C78.7805 54.8455 78.6876 49.2182 78.0016 47.16C77.9462 46.9946 77.7426 46.4618 77.5943 46.4109L76.4993 46.3982V57.4527V57.4546Z" fill="#FDFFE3"/>
<path d="M98 16.8V27.6364L93.2429 27.7018C89.4987 27.9873 87.2818 24.2018 88.9735 20.8818C90.1686 18.5345 92.6213 18.4709 94.9239 18.54C94.7756 16.5 96.5745 16.78 98 16.8ZM94.9292 21.8182C94.9292 21.6655 92.5659 21.7618 92.2836 21.8509C91.4762 22.1055 91.3083 23.7855 91.9335 24.2491C92.0264 24.3182 92.4516 24.5091 92.5355 24.5091H94.8221L94.9292 24.4V21.8182Z" fill="#FDFFE3"/>
<path d="M21.0005 60L21.0362 43.9273H24.9644C25.7379 43.9273 26.7329 44.9818 27.0634 45.6455C28.2156 47.9546 28.3299 55.1273 24.6786 55.1273H23.3567V58.6546C23.3567 58.9673 22.8619 59.6 22.5761 59.7509C22.3796 59.8527 22.1473 59.8327 22.0009 60H21.0005ZM23.3567 46.4V52.5455L23.4639 52.6546H24.6072C24.675 52.6546 24.8269 52.4873 24.8769 52.42C25.5271 51.5346 25.4378 48.6873 25.1931 47.6236C25.1198 47.3055 24.893 46.3946 24.5268 46.3509L23.3585 46.4018L23.3567 46.4Z" fill="#FDFFE3"/>
<path d="M55.2862 60H54.4288L54.4645 43.9273H58.3213C58.6857 43.9273 59.4717 44.3964 59.7486 44.6564C61.6117 46.4055 61.6242 52.1382 60.0701 54.0709C59.7003 54.5309 58.8447 55.1273 58.2498 55.1273H56.8207L56.7207 55.2418C56.7796 56.1509 56.8564 57.2364 56.7868 58.1473C56.7064 59.1946 56.2527 59.6946 55.2844 60H55.2862ZM56.785 52.6546H58.0354C58.0587 52.6546 58.3105 52.3746 58.3463 52.3164C58.9876 51.26 58.8911 48.0418 58.3838 46.9164C58.3123 46.7564 58.1355 46.4382 57.9801 46.38C57.93 46.3618 56.9726 46.3527 56.9208 46.3655C56.8529 46.38 56.7921 46.4236 56.7439 46.4727C56.6867 46.5691 56.7868 46.6291 56.7868 46.6546V52.6546H56.785Z" fill="#FDFFE3"/>
<path d="M68.7143 60H67.7854C66.7029 59.6946 66.5832 59.0055 66.6118 57.9582C66.5939 57.9346 66.2099 57.8182 66.1777 57.8182H64.7486C64.6772 57.8636 64.6557 57.9182 64.6414 58C64.536 58.5909 64.7772 59.4055 64.57 60H63.6411C63.2463 59.78 62.9033 59.7236 62.6729 59.2782C62.6371 59.2109 62.4996 58.84 62.4996 58.8V52.6182L62.6068 52.5091H66.6064C66.7261 52.5091 67.496 52.7655 67.6425 52.8364C68.9001 53.4418 69.3824 54.9164 68.8912 56.2164C68.8322 56.3727 68.5964 56.7055 68.5857 56.7764C68.5786 56.82 68.7715 57.4237 68.7876 57.6327C68.8465 58.3727 68.7876 59.2636 68.7143 59.9982V60ZM64.6521 55.6273C64.7075 55.6527 64.77 55.6818 64.8308 55.6837C65.1345 55.7 66.3385 55.6782 66.5921 55.62C66.9798 55.5327 67.0673 55.0782 66.7511 54.8346C66.3331 54.5127 65.3345 54.8091 64.8183 54.6473C64.5432 54.6891 64.6575 55.4109 64.6521 55.6273Z" fill="#FDFFE3"/>
<path d="M10.929 60H9.92862C9.50168 59.8182 9.13905 59.72 8.86931 59.2982C8.82822 59.2346 8.64423 58.8327 8.64423 58.8V44.0364L8.75141 43.9273H9.96614C10.461 43.9273 11.1201 44.8309 11.0719 45.3455C10.8272 49.9691 11.3988 54.9473 11.0755 59.5309C11.063 59.7182 11.0308 59.8455 10.929 60Z" fill="#FDFFE3"/>
<path d="M72.6425 60H71.7136C71.0884 59.8018 70.5668 59.5109 70.4257 58.8018V43.9273H71.6779C72.1173 43.9273 72.8283 44.72 72.7837 45.2018L72.789 59.6055L72.6408 60H72.6425Z" fill="#FDFFE3"/>
<path d="M14.4285 3.8147e-06C14.6536 0.84364 15.2199 1.79273 14.7018 2.64364C14.2981 3.30546 13.1834 3.57091 12.4849 3.80546C10.2841 4.54364 8.02795 5.13637 5.82893 5.87819C5.67352 5.84728 5.45915 5.11819 5.40556 4.93091C5.21978 4.27455 5.07508 3.96909 5.4395 3.32364C5.73961 2.78909 6.22908 2.61637 6.76856 2.42182C9.09262 1.58728 11.6239 1.04182 13.9426 0.200004C14.0569 0.158186 14.1641 0.130913 14.2123 0.001822H14.4267L14.4285 3.8147e-06Z" fill="#FDFFE3"/>
<path d="M48.4998 35.2727C48.4498 36.1218 48.5802 37.0909 48.4998 37.9273C48.3748 39.2073 47.2029 40.2327 45.9686 40.2946C41.6491 40.0618 37.0332 40.5927 32.7477 40.2946C30.1146 40.1109 29.0445 38.5091 28.9266 35.9673C28.8087 33.4327 29.0249 30.8036 28.9266 28.26C28.907 27.9382 28.305 27.4927 28.037 27.4927H25.5379L25.4307 27.6018V37.9291C25.4307 38.8364 24.0784 40.2927 23.1799 40.2927H20.5021V7.20001H28.6801C29.1803 7.20001 30.2432 7.65274 30.6916 7.91456C34.6841 10.24 35.0896 17.2309 34.2536 21.3109C33.982 22.6327 33.4837 23.8473 32.7977 24.9946C33.2032 25.62 33.573 26.3164 33.7534 27.0509C33.7909 27.2018 33.9302 27.86 33.9302 27.9618V35.1618L34.0374 35.2709H48.5016L48.4998 35.2727ZM25.5361 12.2182L25.4289 12.3273V22.3636L25.5361 22.4727H28.1067C28.3639 22.4727 28.7248 22.0691 28.8552 21.8527C29.9717 20.0055 29.9413 14.3855 28.5997 12.66C28.5229 12.5618 28.1978 12.2164 28.1067 12.2164H25.5361V12.2182Z" fill="#FDFFE3"/>
<path d="M51.3223 40.2909L51.2115 40.04C50.7345 32.4055 52.587 24.9982 54.3073 17.6582C54.9932 14.7273 55.6989 11.7818 56.4634 8.87273C56.5706 8.46546 56.7278 7.66182 56.8761 7.32909C56.9154 7.23818 56.9493 7.17455 57.0511 7.14364L61.2241 7.17091C62.7532 13.1636 64.3002 19.1691 65.5399 25.2345C66.0812 27.8818 66.685 30.7327 66.9297 33.42C66.9815 33.9836 66.8511 34.6855 67.1084 35.2018H83.5018V37.4927C83.5018 38.5709 81.8745 40.22 80.8241 40.22H62.2173C62.0655 39.3782 62.1798 38.4927 62.1494 37.6346C61.9851 32.9746 61.3205 29.0909 60.3416 24.5655C60.0111 23.0364 59.6789 21.2655 59.2537 19.7818C59.2073 19.62 59.1662 19.3545 59.0036 19.2727C58.1819 23.4091 57.0493 27.5018 56.4438 31.6855C56.1526 33.6927 56.2919 35.3455 56.149 37.2764C56.0508 38.6073 54.7967 40.2909 53.3962 40.2909H51.324H51.3223Z" fill="#FDFFE3"/>
<path d="M12.8672 40.28C13.0298 36.9837 12.5403 33.7564 11.9794 30.5291C11.4185 27.3018 10.6146 23.8055 10.0001 20.4346C9.82681 20.3946 9.84288 20.5018 9.80894 20.6364C8.97471 23.96 8.31018 27.8527 7.73497 31.2546C7.44379 32.9746 7.15083 34.7327 7.00256 36.4727C6.96683 36.8946 7.04186 37.3527 6.99363 37.7727C6.71138 40.2364 4.06756 40.6727 2.09006 40.2727C2.03825 40.2037 2.02039 40.1164 2.00788 40.0309C1.91321 39.3346 1.97037 38.0109 1.99895 37.2691C2.12757 33.8891 2.83497 30.4273 3.44948 27.1091C4.2462 22.8127 5.17154 18.5182 6.10759 14.2527C6.57383 12.1327 7.00435 9.88183 7.54919 7.79274C7.60457 7.58183 7.65637 7.17092 7.89574 7.12729L12.0776 7.16001L12.1348 7.24728C13.5943 13.6273 15.0591 20.02 16.2684 26.4564C16.8526 29.5655 17.9994 34.5982 17.7922 37.6382C17.6171 40.2273 14.9269 40.6655 12.8708 40.2782L12.8672 40.28Z" fill="#FDFFE3"/>
<path d="M73.5 15.3818C73.5 15.4073 73.4 15.4855 73.4589 15.5618C73.634 15.9127 77.5622 17.6018 78.216 17.9255C79.6201 18.62 81.737 19.6273 82.4551 21.1C82.9535 22.1218 82.8499 25.2582 82.7891 26.5127C82.5194 31.9946 78.8448 32.0655 74.3932 31.7818C71.3975 31.5909 69.2521 29.5182 68.6768 26.5473C68.634 26.3236 68.4303 25.5509 68.6876 25.4655L72.1781 25.2527C72.5479 25.2927 72.9302 25.3964 73.2374 25.6127C73.7751 25.9909 73.7751 26.6236 74.554 26.7455C75.4829 26.8909 76.6494 26.68 77.6051 26.7618C77.8016 26.7236 77.8355 26.6236 77.8605 26.44C77.9374 25.8545 77.9123 24.3582 77.8605 23.7418C77.8498 23.6091 77.8534 23.4745 77.7659 23.3655C77.6551 23.2291 76.628 22.7509 76.3832 22.6291C74.2253 21.5509 69.0698 19.8236 68.5911 17.1818C68.3392 15.7873 68.416 11.4436 68.8251 10.1109C69.3056 8.54182 70.7883 7.3 72.4032 7.13637C73.693 7.00546 77.0978 6.99637 78.2875 7.30909C80.8974 7.99273 82.6641 10.6655 82.723 13.3364C82.2354 13.5418 81.6923 13.42 81.1796 13.4545C79.7702 13.5491 78.9127 13.8455 77.7123 12.8382C77.5229 12.68 77.1835 12.1455 76.8923 12.1455H73.6072L73.5 12.2545C73.5072 13.2964 73.4911 14.34 73.5 15.3818Z" fill="#FDFFE3"/>
<path d="M47.6423 7.34547V9.56365C47.6423 10.8473 46.399 12.3636 45.1075 12.3636H41.9653L41.8581 12.4727V16.4727C41.8581 16.4891 41.926 16.6127 41.9492 16.6364L46.5723 16.7273V19.4546C46.5723 19.5636 46.2829 20.2418 46.2007 20.3855C45.8113 21.0691 44.8199 21.7455 44.0357 21.7455H41.9278C41.951 21.8164 41.8563 21.9036 41.8563 21.9273V26.4364L41.9635 26.5455H47.4637C47.4869 26.5455 47.5727 26.6418 47.6423 26.6182V28.9818C47.6423 30.18 46.2883 31.6364 45.1075 31.6364H37.0367L36.9295 31.5273V7.38183L37.0367 7.27274H47.4655C47.4887 7.27274 47.5745 7.3691 47.6441 7.34547H47.6423Z" fill="#FDFFE3"/>
<path d="M50.572 57.4545L50.606 54.2564C49.5484 53.0309 46.7349 52.0927 46.2312 50.4927C46.0436 49.8964 46.0847 47.1127 46.1401 46.3618C46.3223 43.9436 47.9764 43.6854 50.0343 43.8564C52.0654 44.0254 52.9479 45.8291 52.9675 47.7145C52.9175 47.7891 52.8282 47.7764 52.7532 47.7854C52.4263 47.8273 51.5081 47.8509 51.2151 47.7454C50.4327 47.4636 50.3988 46.4891 50.1433 46.3636L48.6874 46.3364C48.557 46.3818 48.5141 46.7327 48.4998 46.8727C48.4498 47.36 48.4195 49.1309 48.4998 49.5618C48.5802 49.9927 50.8418 51.3 51.308 51.6491C51.9708 52.1454 52.905 52.8945 52.9997 53.7818C53.1087 54.8073 53.0872 57.6782 52.7157 58.5836C52.3155 59.56 51.5152 59.8654 50.5381 59.9309C48.3248 60.0782 46.9153 59.66 46.3062 57.3254C46.2115 56.9636 46.0293 56.3 46.249 56.0018H47.8925C47.9264 56.0018 48.3659 56.3327 48.4284 56.4018C48.6999 56.7073 48.7214 57.1836 49.0358 57.4564H50.572V57.4545Z" fill="#FDFFE3"/>
<path d="M39.0553 43.9473C39.7877 43.8582 41.9724 43.8418 42.628 44.0509C43.548 44.3436 44.1304 45.1836 44.2161 46.1436C44.041 48.5418 44.4465 51.2709 44.2054 53.6291C44.0768 54.8909 43.1836 55.68 41.9671 55.7855C41.1989 55.8527 39.1464 55.8691 38.4801 55.6218C37.6262 55.3036 37.21 54.5382 37.1403 53.64C36.9492 51.1673 37.2814 48.4364 37.151 45.9364C37.2707 44.8364 37.9674 44.08 39.0553 43.9473ZM39.5001 46.5091V53.2C39.5001 53.4473 40.1217 53.3054 40.2468 53.3054C40.7202 53.3054 41.2025 53.2764 41.6705 53.3636C41.7205 53.3545 41.8581 53.2182 41.8581 53.2V46.5091C41.8581 46.2709 41.4347 46.4018 41.3258 46.4036C40.9006 46.4055 40.1307 46.3164 39.7752 46.3673C39.6698 46.3818 39.5698 46.4236 39.5001 46.5091Z" fill="#FDFFE3"/>
<path d="M91.035 43.9273H94.8917C95.7081 43.9273 96.6013 44.9273 96.955 45.6091C98.0536 47.7346 98.1715 53.2764 96.3923 55.0546C96.0689 55.3782 95.1936 55.8546 94.7506 55.8546H91.0367L90.9296 55.7455V44.0364L91.0367 43.9273H91.035ZM93.3572 53.3818H94.6077C95.1686 52.8 95.3079 51.6691 95.3562 50.8727C95.4437 49.4527 95.3723 47.6746 94.6416 46.4382C94.4058 46.4382 93.3626 46.2382 93.2965 46.5164L93.3554 53.3818H93.3572Z" fill="#FDFFE3"/>
<path d="M67.2853 46.6909V47.7455C67.2853 48.0636 66.6511 48.8 66.3206 48.8H64.963C64.8219 48.8 64.8219 49.2364 64.963 49.2364H67.605C67.6247 49.2364 67.7711 49.3109 67.7854 49.3582C67.8015 49.9655 67.8301 50.7018 67.3192 51.1273C67.2442 51.1891 66.8047 51.4164 66.7476 51.4164H62.8193L62.7122 51.3073V44.1073C62.7122 44.0836 62.8068 43.9964 62.7836 43.9255H67.6765C67.9266 44.4455 67.8033 45.3709 67.3513 45.7746C67.2352 45.8782 66.8083 46.1073 66.6779 46.1073H64.963C64.8165 46.1073 64.8165 46.6164 64.963 46.6164H67.1066C67.1298 46.6164 67.2156 46.7127 67.2853 46.6891V46.6909Z" fill="#FDFFE3"/>
</g>
<defs>
<clipPath id="clip0_476_770">
<rect width="98" height="60" fill="white"/>
</clipPath>
</defs>
</svg>
